HIERARCHY
ROOT joint_Root
{
	OFFSET 0.0 0.0 0.0
	CHANNELS 6 Xposition Yposition Zposition Zrotation Xrotation Yrotation 
	JOINT Hips
	{
		OFFSET 4.5925 91.4895 -427.239
		CHANNELS 6 Xposition Yposition Zposition Zrotation Xrotation Yrotation 
		JOINT Spine
		{
			OFFSET 15.7357 0.0 0.0
			CHANNELS 6 Xposition Yposition Zposition Zrotation Xrotation Yrotation 
			JOINT Chest
			{
				OFFSET 8.98455 -0.406207 0.0
				CHANNELS 6 Xposition Yposition Zposition Zrotation Xrotation Yrotation 
				JOINT Neck
				{
					OFFSET 16.3773 0.0 0.0
					CHANNELS 6 Xposition Yposition Zposition Zrotation Xrotation Yrotation 
					JOINT Head
					{
						OFFSET 6.45672 0.0 0.0
						CHANNELS 6 Xposition Yposition Zposition Zrotation Xrotation Yrotation 
						End Site
						{
							OFFSET 0.0 0.0 0.0
						}
					}
				}
				JOINT Shoulder_L
				{
					OFFSET 12.9942 -0.242716 4.98039
					CHANNELS 6 Xposition Yposition Zposition Zrotation Xrotation Yrotation 
					JOINT UpperArm_L
					{
						OFFSET 5.34809 0.0 0.0
						CHANNELS 6 Xposition Yposition Zposition Zrotation Xrotation Yrotation 
						JOINT LowerArm_L
						{
							OFFSET 24.3286 1.87007e-05 0.0
							CHANNELS 6 Xposition Yposition Zposition Zrotation Xrotation Yrotation 
							JOINT Hand_L
							{
								OFFSET 22.2916 0.0 0.0
								CHANNELS 6 Xposition Yposition Zposition Zrotation Xrotation Yrotation 
								End Site
								{
									OFFSET 0.0 0.0 0.0
								}
							}
						}
					}
				}
				JOINT Shoulder_R
				{
					OFFSET 12.9945 -0.242716 -4.98039
					CHANNELS 6 Xposition Yposition Zposition Zrotation Xrotation Yrotation 
					JOINT UpperArm_R
					{
						OFFSET -5.34813 0.0 0.0
						CHANNELS 6 Xposition Yposition Zposition Zrotation Xrotation Yrotation 
						JOINT LowerArm_R
						{
							OFFSET -24.3289 0.000322201 0.0
							CHANNELS 6 Xposition Yposition Zposition Zrotation Xrotation Yrotation 
							JOINT Hand_R
							{
								OFFSET -22.2915 -0.000108084 0.0
								CHANNELS 6 Xposition Yposition Zposition Zrotation Xrotation Yrotation 
								End Site
								{
									OFFSET 0.0 0.0 0.0
								}
							}
						}
					}
				}
			}
		}
		JOINT UpperLeg_L
		{
			OFFSET -2.19248 -6.46944 0.0
			CHANNELS 6 Xposition Yposition Zposition Zrotation Xrotation Yrotation 
			JOINT LowerLeg_L
			{
				OFFSET 39.0811 0.0 -1.23785e-05
				CHANNELS 6 Xposition Yposition Zposition Zrotation Xrotation Yrotation 
				JOINT Foot_L
				{
					OFFSET 40.9854 0.0 -1.26872e-05
					CHANNELS 6 Xposition Yposition Zposition Zrotation Xrotation Yrotation 
					JOINT Toes_L
					{
						OFFSET 11.7543 0.0 0.0
						CHANNELS 6 Xposition Yposition Zposition Zrotation Xrotation Yrotation 
						End Site
						{
							OFFSET 0.0 0.0 0.0
						}
					}
				}
			}
		}
		JOINT UpperLeg_R
		{
			OFFSET -2.19251 6.46944 0.0
			CHANNELS 6 Xposition Yposition Zposition Zrotation Xrotation Yrotation 
			JOINT LowerLeg_R
			{
				OFFSET -39.0811 -0.00228153 -0.0401928
				CHANNELS 6 Xposition Yposition Zposition Zrotation Xrotation Yrotation 
				JOINT Foot_R
				{
					OFFSET -40.9854 0.0 0.0
					CHANNELS 6 Xposition Yposition Zposition Zrotation Xrotation Yrotation 
					JOINT Toes_R
					{
						OFFSET -11.7543 0.0 0.0
						CHANNELS 6 Xposition Yposition Zposition Zrotation Xrotation Yrotation 
						End Site
						{
							OFFSET 0.0 0.0 0.0
						}
					}
				}
			}
		}
	}
}
MOTION
Frames:	5
Frame Time:	0.0333333
0.000000 0.000000 0.000000 0.000000 0.000000 -0.000000 2.657580 90.182800 2.554580 87.553200 -10.106900 12.653400 15.735700 0.000005 -0.000001 91.562900 83.025900 -92.616000 8.984550 -0.406207 -0.000000 6.181650 0.393911 -2.125040 16.377300 -0.000001 -0.000001 32.818600 -4.331680 -0.231404 6.456720 -0.000001 -0.000000 21.092000 -5.973140 -4.688470 12.994200 -0.242716 4.980390 -87.368600 -6.551100 -68.058800 5.348090 -0.000007 -0.000001 -58.766200 -42.592900 -82.364400 24.328600 0.000019 0.000005 20.254400 7.091740 -71.501300 22.291600 -0.000001 0.000005 18.616100 5.235370 1.816310 12.994500 -0.242716 -4.980390 90.910800 -3.328260 -74.686100 -5.348130 -0.000001 -0.000004 -53.097000 -40.971700 -78.241000 -24.328900 0.000322 -0.000009 5.222640 2.554350 -64.013400 -22.291500 -0.000108 -0.000004 25.447000 5.454760 -4.810560 -2.192480 -6.469440 -0.000000 -174.174000 -13.716400 4.463620 39.081100 -0.000007 -0.000012 -0.196144 0.301706 33.028900 40.985400 -0.000006 -0.000013 0.427654 -1.208870 -74.399500 11.754300 -0.000000 0.000003 -0.000183 -0.001721 -16.642600 -2.192510 6.469440 -0.000001 172.842000 16.562200 -175.137000 -39.081100 -0.002282 -0.040193 -0.185995 0.318434 30.729900 -40.985400 0.000008 0.000006 2.610540 16.073600 -72.058900 -11.754300 -0.000006 -0.000006 -0.001436 -0.021424 -17.444300
0.000000 0.000000 0.000000 0.000000 0.000000 -0.000000 2.795860 90.173100 2.633500 87.581400 -10.270000 12.653400 15.735700 0.000005 -0.000001 91.573300 83.042200 -92.633600 8.984550 -0.406207 -0.000000 6.148920 0.395956 -2.139350 16.377300 -0.000001 -0.000001 32.792700 -4.340500 -0.304741 6.456720 -0.000001 -0.000000 21.046600 -5.942850 -4.609140 12.994200 -0.242716 4.980390 -87.355300 -6.566870 -68.005600 5.348090 -0.000007 -0.000001 -58.933400 -42.641500 -82.475800 24.328600 0.000019 0.000005 20.185300 7.023960 -71.601700 22.291600 -0.000001 0.000005 18.615700 5.236040 1.798860 12.994500 -0.242716 -4.980390 90.907800 -3.326260 -74.724600 -5.348130 -0.000001 -0.000004 -53.023600 -41.004400 -78.135900 -24.328900 0.000322 -0.000009 5.189400 2.535610 -64.034600 -22.291500 -0.000108 -0.000004 25.380600 5.456760 -4.882840 -2.192480 -6.469440 -0.000000 -174.355000 -13.690200 4.533680 39.081100 -0.000007 -0.000012 -0.188372 0.290232 32.985400 40.985400 -0.000006 -0.000013 0.459304 -1.458540 -74.457600 11.754300 -0.000000 0.000003 -0.000198 -0.001835 -16.646800 -2.192510 6.469440 -0.000001 172.744000 16.413000 -175.151000 -39.081100 -0.002282 -0.040193 -0.179356 0.306872 30.762100 -40.985400 0.000008 0.000006 2.671060 16.104800 -72.117200 -11.754300 -0.000006 -0.000006 -0.001464 -0.021788 -17.459100
0.000000 0.000000 0.000000 0.000000 0.000000 -0.000000 2.924950 90.146500 2.719920 87.579900 -10.420700 12.658100 15.735700 0.000005 -0.000001 91.690900 83.044900 -92.739800 8.984550 -0.406207 -0.000000 6.142990 0.424157 -2.118100 16.377300 -0.000001 -0.000001 32.688300 -4.333320 -0.320545 6.456720 -0.000001 -0.000000 20.999500 -5.912520 -4.574020 12.994200 -0.242716 4.980390 -87.346100 -6.573190 -67.955900 5.348090 -0.000007 -0.000001 -59.079500 -42.702800 -82.650600 24.328600 0.000019 0.000005 20.252900 7.026380 -71.658100 22.291600 -0.000001 0.000005 18.576300 5.236240 1.793650 12.994500 -0.242716 -4.980390 90.916000 -3.347590 -74.687800 -5.348130 -0.000001 -0.000004 -53.080100 -41.053300 -78.161200 -24.328900 0.000322 -0.000009 5.073940 2.482410 -64.002400 -22.291500 -0.000108 -0.000004 25.148700 5.457030 -4.892930 -2.192480 -6.469440 -0.000000 -174.459000 -13.697600 4.576200 39.081100 -0.000007 -0.000012 -0.190929 0.293568 33.039200 40.985400 -0.000006 -0.000013 0.485617 -1.653750 -74.566400 11.754300 -0.000000 0.000003 -0.000199 -0.001842 -16.647000 -2.192510 6.469440 -0.000001 172.668000 16.241600 -175.157000 -39.081100 -0.002282 -0.040193 -0.181793 0.310309 30.815500 -40.985400 0.000008 0.000006 2.507620 16.137600 -72.128700 -11.754300 -0.000006 -0.000006 -0.001608 -0.023701 -17.536900
0.000000 0.000000 0.000000 0.000000 0.000000 -0.000000 3.049350 90.114900 2.816750 87.509200 -10.569600 12.659700 15.735700 0.000005 -0.000001 91.675800 83.053800 -92.676400 8.984550 -0.406207 -0.000000 6.125060 0.419468 -2.021390 16.377300 -0.000001 -0.000001 32.637100 -4.321820 -0.331961 6.456720 -0.000001 -0.000000 20.913500 -5.896040 -4.645260 12.994200 -0.242716 4.980390 -87.346100 -6.560660 -67.918100 5.348090 -0.000007 -0.000001 -59.199800 -42.786900 -82.696500 24.328600 0.000019 0.000005 20.349000 7.003370 -71.801700 22.291600 -0.000001 0.000005 18.546500 5.234780 1.831640 12.994500 -0.242716 -4.980390 90.934800 -3.410000 -74.659800 -5.348130 -0.000001 -0.000004 -53.161700 -41.012800 -78.285400 -24.328900 0.000322 -0.000009 5.059620 2.489890 -63.870300 -22.291500 -0.000108 -0.000004 25.238300 5.457060 -4.893940 -2.192480 -6.469440 -0.000000 -174.516000 -13.675500 4.612250 39.081100 -0.000007 -0.000012 -0.187062 0.286514 33.140500 40.985400 -0.000006 -0.000013 0.513077 -1.868740 -74.712800 11.754300 -0.000000 0.000003 -0.000218 -0.001989 -16.652400 -2.192510 6.469440 -0.000001 172.666000 16.085800 -175.155000 -39.081100 -0.002282 -0.040193 -0.179112 0.304995 30.883100 -40.985400 0.000008 0.000006 2.520030 16.139100 -72.204500 -11.754300 -0.000006 -0.000006 -0.001742 -0.025444 -17.607700
0.000000 0.000000 0.000000 0.000000 0.000000 -0.000000 3.168050 90.083300 2.930170 87.473200 -10.706700 12.694200 15.735700 0.000005 -0.000001 91.745100 83.063000 -92.716200 8.984550 -0.406207 -0.000000 6.106140 0.435389 -1.963310 16.377300 -0.000001 -0.000001 32.653300 -4.302890 -0.329364 6.456720 -0.000001 -0.000000 20.872200 -5.884940 -4.622230 12.994200 -0.242716 4.980390 -87.339100 -6.573950 -67.905100 5.348090 -0.000007 -0.000001 -59.367000 -42.799400 -82.796700 24.328600 0.000019 0.000005 20.294300 6.919350 -71.955500 22.291600 -0.000001 0.000005 18.636100 5.234500 1.838870 12.994500 -0.242716 -4.980390 90.937500 -3.415220 -74.639800 -5.348130 -0.000001 -0.000004 -53.203100 -41.018100 -78.383500 -24.328900 0.000322 -0.000009 5.176450 2.559570 -63.765000 -22.291500 -0.000108 -0.000004 25.279900 5.455510 -4.838160 -2.192480 -6.469440 -0.000000 -174.588000 -13.634300 4.690490 39.081100 -0.000007 -0.000012 -0.193789 0.295930 33.219000 40.985400 -0.000006 -0.000013 0.525533 -2.096020 -74.848200 11.754300 -0.000000 0.000003 -0.000197 -0.001826 -16.646500 -2.192510 6.469440 -0.000001 172.634000 15.891100 -175.109000 -39.081100 -0.002282 -0.040193 -0.176344 0.299569 30.950200 -40.985400 0.000008 0.000006 2.507440 16.124700 -72.293500 -11.754300 -0.000006 -0.000006 -0.001577 -0.023290 -17.520100
